<svg id="Color" enable-background="new 0 0 24 24" height="512" viewBox="0 0 24 24" width="512" xmlns="http://www.w3.org/2000/svg"><path d="m21.589 7.925c-.273-.14-.605-.096-.836.107l-3.684 3.258-4.414-7.906c-.265-.475-1.045-.475-1.31 0l-4.414 7.906-3.684-3.258c-.23-.202-.562-.246-.836-.107-.274.138-.436.431-.408.737l.974 10.656c.035.387.359.682.747.682h16.553c.388 0 .711-.295.747-.682l.974-10.656c.027-.306-.135-.599-.409-.737z" fill="#ffc107"/><g fill="#f44336"><path d="m12 0c-1.103 0-2 .897-2 2s.897 2 2 2 2-.897 2-2-.897-2-2-2z"/><path d="m2 5c-1.103 0-2 .897-2 2s.897 2 2 2 2-.897 2-2-.897-2-2-2z"/><path d="m13.86 13.564-1.25-1.75c-.281-.394-.939-.394-1.221 0l-1.25 1.75c-.186.261-.186.611 0 .872l1.25 1.75c.141.197.369.314.611.314s.47-.117.61-.314l1.25-1.75c.186-.261.186-.611 0-.872z"/></g><path d="m21.5 19h-19c-1.378 0-2.5 1.122-2.5 2.5s1.122 2.5 2.5 2.5h19c1.378 0 2.5-1.122 2.5-2.5s-1.122-2.5-2.5-2.5z" fill="#f9a825"/><path d="m11.116 3.794-4.185 7.496-3.399-3.006c-.36.429-.897.706-1.498.716l.914 10h9.052v-2.5c-.242 0-.47-.117-.61-.314l-1.25-1.75c-.186-.261-.186-.611 0-.872l1.25-1.75c.141-.197.375-.295.61-.295v-7.519c-.317 0-.617-.074-.884-.206z" fill="#dea806"/><path d="m12 0c-1.103 0-2 .897-2 2 0 .786.455 1.467 1.116 1.794.267.132.567.206.884.206z" fill="#d43a2f"/><path d="m12 11.519c-.235 0-.47.098-.61.295l-1.25 1.75c-.186.261-.186.611 0 .872l1.25 1.75c.14.197.368.314.61.314z" fill="#d43a2f"/><path d="m12 19h-9.053-.447c-1.378 0-2.5 1.122-2.5 2.5s1.122 2.5 2.5 2.5h9.5z" fill="#d99220"/><circle cx="22" cy="7" fill="#f44336" r="2"/><path d="m2 5c-1.103 0-2 .897-2 2 0 .786.455 1.467 1.116 1.794.267.132.567.206.884.206z" fill="#d43a2f"/><path d="m22 5c-1.103 0-2 .897-2 2 0 .786.455 1.467 1.116 1.794.267.132.567.206.884.206z" fill="#d43a2f"/></svg>