<svg id="Color" enable-background="new 0 0 24 24" height="512" viewBox="0 0 24 24" width="512" xmlns="http://www.w3.org/2000/svg"><path d="m23.36 8.555-7.382-1.101-3.33-7.025c-.124-.262-.387-.429-.677-.429h-.003c-.29.001-.555.17-.677.434l-3.282 7.046-7.374 1.152c-.279.044-.509.238-.597.506-.089.267-.02.56.177.761l5.379 5.471-1.239 7.763c-.046.282.075.567.31.731.128.09.278.136.43.136.125 0 .251-.031.365-.095l6.577-3.662 6.603 3.618c.25.138.56.119.795-.047.233-.166.353-.451.306-.734l-1.294-7.755 5.342-5.506c.196-.202.263-.496.172-.763-.091-.266-.322-.459-.601-.501z" fill="#ffc107"/><path d="m13.25 17h-2.5c-.414 0-.75-.336-.75-.75v-1.375c0-1.172.898-2.125 2-2.125.271 0 .5-.286.5-.625s-.229-.625-.5-.625h-1.25c-.414 0-.75-.336-.75-.75s.336-.75.75-.75h1.25c1.102 0 2 .953 2 2.125s-.898 2.125-2 2.125c-.271 0-.5.286-.5.625v.625h1.75c.414 0 .75.336.75.75s-.336.75-.75.75z" fill="#fafafa"/><path d="m12 14.25c-.271 0-.5.286-.5.625v.625h.5zm-.029-14.25h-.003c-.29.001-.555.17-.677.434l-3.282 7.046-7.374 1.152c-.279.044-.509.238-.597.506-.089.267-.02.56.177.761l5.379 5.471-1.239 7.763c-.046.282.075.567.31.731.128.09.278.136.43.136.125 0 .251-.031.365-.095l6.54-3.641v-3.264h-1.25c-.414 0-.75-.336-.75-.75v-1.375c0-1.172.898-2.125 2-2.125v-1.25h-1.25c-.414 0-.75-.336-.75-.75s.336-.75.75-.75h1.25v-10c-.01 0-.019 0-.029 0z" fill="#dea806"/><path d="m12 12.75c-1.102 0-2 .953-2 2.125v1.375c0 .414.336.75.75.75h1.25v-1.5h-.5v-.625c0-.339.229-.625.5-.625zm0-2.75h-1.25c-.414 0-.75.336-.75.75s.336.75.75.75h1.25z" fill="#dadada"/></svg>